# xmcd
#
# Track frame offsets: 
#        150
#        10524
#        23051
#        37220
#        51339
#        63841
#        75839
#        87580
#        99077
#        114864
#        130852
#        140023
#        149272
#        158248
#        172711
#        181851
#        195266
#        209842
#
# Disc length: 3011 seconds
#
# Revision: 1
# Processed by: cddbd v1.5.2PL0 Copyright (c) Steve Scherf et al.
# Submitted via: ExactAudioCopyFreeDBPlugin 1.0
#
DISCID=e20bc112
DTITLE=Various Artist - RCA SWING100! CD5　マンボ／ラテン
DYEAR=2006
DGENRE=Jazz
TTITLE0=ペレス・プラード楽団 - タブー
TTITLE1=ペレス・プラード楽団 - マンボNo.5
TTITLE2=ペレス・プラード楽団 - エル・マンボ
TTITLE3=ペレス・プラード楽団 - マンボNo.8
TTITLE4=ペレス・プラード楽団 - 闘牛士のマンボ
TTITLE5=ペリー・コモ with ミッチェル・エイヤーズ・オーケストラ - パパはマンボがお好き
TTITLE6=エンリケ・ホリン楽団 - チャチャチャは素晴らしい
TTITLE7=パブロ・ベルトラン・ルイス楽団 - コーヒー・ルンバ
TTITLE8=ソフィア・ローレン with アルマンド・トロヴァヨーリ楽団 - マンボ・バカン
TTITLE9=ドン・アスピアス楽団 - 南京豆売り
TTITLE10=ローズマリー・クルーニー and ペレス・プラード楽団 - メロンの心
TTITLE11=ローズマリー・クルーニー and ペレス・プラード楽団 - ライク・ア・ウーマン
TTITLE12=ローズマリー・クルーニー and ペレス・プラード楽団 - マック・ザ・ナイフ
TTITLE13=ティト・プエンテ楽団 - ダンス・マニア
TTITLE14=ティト・プエンテ楽団 - フレネシ
TTITLE15=ティト・プエンテ楽団 - ラン・カン・カン
TTITLE16=ティト・プエンテ楽団 - マンボでスウィング
TTITLE17=ティト・ロドリゲス楽団 - これがマンボだ
EXTD=
EXTT0=
EXTT1=
EXTT2=
EXTT3=
EXTT4=
EXTT5=
EXTT6=
EXTT7=
EXTT8=
EXTT9=
EXTT10=
EXTT11=
EXTT12=
EXTT13=
EXTT14=
EXTT15=
EXTT16=
EXTT17=
PLAYORDER=
